<svg version="1.1" id="Layer_1" xmlns="http://www.w3.org/2000/svg" xmlns:xlink="http://www.w3.org/1999/xlink" x="0px" y="0px"
	 width="100%" viewBox="0 0 893 629" enable-background="new 0 0 893 629" xml:space="preserve">
<path fill="#1B4571" opacity="1.000000" stroke="none" 
	d="
M588.000000,630.000000 
	C392.000000,630.000000 196.500000,630.000000 1.000000,630.000000 
	C1.000000,420.333344 1.000000,210.666672 1.000000,1.000000 
	C298.666656,1.000000 596.333313,1.000000 894.000000,1.000000 
	C894.000000,210.666672 894.000000,420.333344 894.000000,630.000000 
	C792.166687,630.000000 690.333313,630.000000 588.000000,630.000000 
M224.522430,508.960571 
	C221.619476,523.135437 218.553711,537.279419 215.854523,551.492981 
	C212.427536,569.538940 221.282883,581.930054 239.647278,583.998169 
	C249.205902,585.074646 258.932037,584.640442 268.580719,584.946655 
	C281.010254,585.341125 288.782867,579.620911 293.068756,567.868896 
	C302.522705,541.945984 309.186462,515.546021 311.274475,487.880066 
	C313.504974,458.326111 316.876251,428.855133 319.950775,399.368866 
	C323.646729,363.922943 327.684967,328.512543 331.335052,293.062042 
	C335.053741,256.945038 338.486115,220.798508 342.033691,184.663925 
	C344.002350,164.611511 345.704376,144.528763 348.008148,124.515129 
	C349.214600,114.034058 353.426971,109.735931 363.752563,108.085350 
	C374.751587,106.327103 385.851440,104.967575 396.960114,104.168747 
	C438.502594,101.181404 480.113403,99.046051 521.609009,95.533386 
	C559.600220,92.317390 597.503113,87.969696 635.380188,83.564377 
	C643.296021,82.643715 651.381104,80.236832 658.572632,76.805481 
	C666.789856,72.884705 669.948914,62.634232 667.420532,53.925182 
	C665.413757,47.013123 660.181763,43.967278 649.998352,43.558475 
	C640.514404,43.177753 631.026794,42.794533 621.557434,42.162842 
	C554.568542,37.694038 487.614624,32.616791 420.587860,28.823334 
	C368.498474,25.875275 316.338654,25.668806 264.234863,29.809980 
	C208.779526,34.217529 154.343811,43.809772 101.350014,60.977741 
	C81.243210,67.491585 61.319382,74.452469 43.255081,85.789154 
	C33.649296,91.817490 27.407124,100.356155 24.063404,111.058449 
	C23.572803,112.628731 23.475285,114.752922 24.137892,116.184959 
	C30.030340,128.919952 38.110214,140.026138 49.549355,148.373962 
	C72.690872,165.261703 97.769249,166.910400 123.975159,157.094727 
	C157.325455,144.603058 191.025345,133.282410 225.841812,125.589432 
	C238.261658,122.845161 250.786987,120.578163 263.795959,117.987411 
	C261.665741,139.548752 259.519226,160.058289 257.637329,180.592087 
	C254.338608,216.585663 251.090820,252.584641 248.031906,288.599213 
	C245.437851,319.140686 243.854523,349.785004 240.539948,380.244110 
	C235.894043,422.937439 230.057388,465.501221 224.522430,508.960571 
M845.746826,400.319397 
	C846.547852,366.841919 847.381470,333.365143 848.109802,299.886078 
	C848.203735,295.570984 847.944885,291.224548 847.512207,286.926575 
	C846.554321,277.411926 840.992859,271.938416 831.833740,269.976654 
	C815.120728,266.396942 798.266724,265.021759 781.205261,266.824829 
	C771.128784,267.889740 767.896118,270.471588 765.061157,280.184326 
	C764.596130,281.777771 764.133789,283.392792 763.903442,285.030640 
	C762.096741,297.879822 760.615234,310.780640 758.531067,323.583771 
	C751.369751,367.577484 733.308594,406.791138 705.510071,441.461823 
	C699.008484,449.570618 691.644775,457.226898 683.624756,463.808228 
	C676.475708,469.674744 668.647095,467.705200 663.385315,460.044708 
	C660.491089,455.830872 658.076477,451.188354 656.085022,446.469299 
	C639.960327,408.259979 638.994873,368.459595 644.599426,328.186127 
	C646.866028,311.898682 650.778259,295.847168 653.518188,279.616791 
	C656.172791,263.892181 650.266052,252.184891 636.193115,244.819992 
	C625.039917,238.983093 613.198853,234.710632 600.508850,234.776886 
	C593.492126,234.813507 585.984741,235.623611 579.581238,238.243042 
	C567.021362,243.380814 555.481995,250.774597 553.501892,265.894775 
	C550.176208,291.290131 546.083679,316.703064 544.864441,342.230408 
	C542.691956,387.717041 552.211487,430.906128 576.052246,470.300903 
	C594.443420,500.690765 620.495361,521.452026 654.967834,530.471130 
	C680.211304,537.075623 705.211731,536.118164 728.484619,522.655945 
	C741.210449,515.294678 753.604187,507.359406 766.516357,499.457336 
	C773.013611,516.636353 779.000427,534.264832 786.449768,551.251953 
	C789.318176,557.792908 795.478760,562.904053 800.238708,568.583435 
	C800.803467,569.257324 801.975220,569.677246 802.902222,569.750305 
	C807.775330,570.134277 823.677429,560.845703 825.401245,556.201355 
	C833.460999,534.486816 840.792725,512.502808 842.023560,489.157257 
	C843.567078,459.879517 844.505798,430.569916 845.746826,400.319397 
z"/>
<path fill="#FEFEFF" opacity="1.000000" stroke="none" 
	d="
M224.626251,508.540497 
	C230.057388,465.501221 235.894043,422.937439 240.539948,380.244110 
	C243.854523,349.785004 245.437851,319.140686 248.031906,288.599213 
	C251.090820,252.584641 254.338608,216.585663 257.637329,180.592087 
	C259.519226,160.058289 261.665741,139.548752 263.795959,117.987411 
	C250.786987,120.578163 238.261658,122.845161 225.841812,125.589432 
	C191.025345,133.282410 157.325455,144.603058 123.975159,157.094727 
	C97.769249,166.910400 72.690872,165.261703 49.549355,148.373962 
	C38.110214,140.026138 30.030340,128.919952 24.137892,116.184959 
	C23.475285,114.752922 23.572803,112.628731 24.063404,111.058449 
	C27.407124,100.356155 33.649296,91.817490 43.255081,85.789154 
	C61.319382,74.452469 81.243210,67.491585 101.350014,60.977741 
	C154.343811,43.809772 208.779526,34.217529 264.234863,29.809980 
	C316.338654,25.668806 368.498474,25.875275 420.587860,28.823334 
	C487.614624,32.616791 554.568542,37.694038 621.557434,42.162842 
	C631.026794,42.794533 640.514404,43.177753 649.998352,43.558475 
	C660.181763,43.967278 665.413757,47.013123 667.420532,53.925182 
	C669.948914,62.634232 666.789856,72.884705 658.572632,76.805481 
	C651.381104,80.236832 643.296021,82.643715 635.380188,83.564377 
	C597.503113,87.969696 559.600220,92.317390 521.609009,95.533386 
	C480.113403,99.046051 438.502594,101.181404 396.960114,104.168747 
	C385.851440,104.967575 374.751587,106.327103 363.752563,108.085350 
	C353.426971,109.735931 349.214600,114.034058 348.008148,124.515129 
	C345.704376,144.528763 344.002350,164.611511 342.033691,184.663925 
	C338.486115,220.798508 335.053741,256.945038 331.335052,293.062042 
	C327.684967,328.512543 323.646729,363.922943 319.950775,399.368866 
	C316.876251,428.855133 313.504974,458.326111 311.274475,487.880066 
	C309.186462,515.546021 302.522705,541.945984 293.068756,567.868896 
	C288.782867,579.620911 281.010254,585.341125 268.580719,584.946655 
	C258.932037,584.640442 249.205902,585.074646 239.647278,583.998169 
	C221.282883,581.930054 212.427536,569.538940 215.854523,551.492981 
	C218.553711,537.279419 221.619476,523.135437 224.626251,508.540497 
z"/>
<path fill="#FEFEFF" opacity="1.000000" stroke="none" 
	d="
M845.726196,400.796722 
	C844.505798,430.569916 843.567078,459.879517 842.023560,489.157257 
	C840.792725,512.502808 833.460999,534.486816 825.401245,556.201355 
	C823.677429,560.845703 807.775330,570.134277 802.902222,569.750305 
	C801.975220,569.677246 800.803467,569.257324 800.238708,568.583435 
	C795.478760,562.904053 789.318176,557.792908 786.449768,551.251953 
	C779.000427,534.264832 773.013611,516.636353 766.516357,499.457336 
	C753.604187,507.359406 741.210449,515.294678 728.484619,522.655945 
	C705.211731,536.118164 680.211304,537.075623 654.967834,530.471130 
	C620.495361,521.452026 594.443420,500.690765 576.052246,470.300903 
	C552.211487,430.906128 542.691956,387.717041 544.864441,342.230408 
	C546.083679,316.703064 550.176208,291.290131 553.501892,265.894775 
	C555.481995,250.774597 567.021362,243.380814 579.581238,238.243042 
	C585.984741,235.623611 593.492126,234.813507 600.508850,234.776886 
	C613.198853,234.710632 625.039917,238.983093 636.193115,244.819992 
	C650.266052,252.184891 656.172791,263.892181 653.518188,279.616791 
	C650.778259,295.847168 646.866028,311.898682 644.599426,328.186127 
	C638.994873,368.459595 639.960327,408.259979 656.085022,446.469299 
	C658.076477,451.188354 660.491089,455.830872 663.385315,460.044708 
	C668.647095,467.705200 676.475708,469.674744 683.624756,463.808228 
	C691.644775,457.226898 699.008484,449.570618 705.510071,441.461823 
	C733.308594,406.791138 751.369751,367.577484 758.531067,323.583771 
	C760.615234,310.780640 762.096741,297.879822 763.903442,285.030640 
	C764.133789,283.392792 764.596130,281.777771 765.061157,280.184326 
	C767.896118,270.471588 771.128784,267.889740 781.205261,266.824829 
	C798.266724,265.021759 815.120728,266.396942 831.833740,269.976654 
	C840.992859,271.938416 846.554321,277.411926 847.512207,286.926575 
	C847.944885,291.224548 848.203735,295.570984 848.109802,299.886078 
	C847.381470,333.365143 846.547852,366.841919 845.726196,400.796722 
z"/>
</svg>